<?xml version="1.0" standalone="no"?>
<!DOCTYPE svg PUBLIC "-//W3C//DTD SVG 20010904//EN"
 "http://www.w3.org/TR/2001/REC-SVG-20010904/DTD/svg10.dtd">
<svg version="1.0" xmlns="http://www.w3.org/2000/svg"
 width="500.000000pt" height="500.000000pt" viewBox="0 0 500.000000 500.000000"
 preserveAspectRatio="xMidYMid meet">
<g transform="translate(0.000000,500.000000) scale(0.100000,-0.100000)"
fill="#000000" stroke="none">
<path d="M2115 4556 c-226 -40 -393 -95 -595 -196 -409 -205 -730 -530 -935
-945 -280 -568 -281 -1250 -1 -1820 366 -746 1120 -1202 1936 -1172 261 10
479 56 708 148 283 115 486 251 707 473 556 559 743 1362 494 2121 -153 465
-489 880 -918 1133 -236 139 -479 223 -770 267 -159 24 -463 19 -626 -9z m587
-111 c305 -40 570 -139 823 -305 564 -372 885 -972 885 -1653 0 -515 -201
-995 -572 -1366 -277 -278 -616 -459 -1013 -543 -99 -21 -136 -23 -375 -22
-304 0 -368 10 -609 90 -718 239 -1230 859 -1326 1607 -108 838 329 1645 1090
2013 192 94 416 159 620 182 128 15 355 13 477 -3z"/>
<path d="M1340 2535 l0 -737 318 4 c268 4 326 8 372 23 132 42 213 108 264
215 29 61 31 73 31 175 0 104 -2 114 -33 177 -37 76 -83 120 -159 155 l-52 24
61 42 c68 47 122 117 139 180 7 24 9 77 6 125 -8 137 -71 239 -182 295 -85 43
-140 49 -457 54 l-308 5 0 -737z m608 560 c100 -30 152 -101 152 -210 0 -75
-24 -128 -77 -176 -64 -58 -94 -64 -308 -64 l-190 0 -3 233 -2 232 188 0 c140
0 202 -4 240 -15z m47 -628 c101 -45 152 -139 143 -266 -6 -79 -33 -137 -85
-180 -63 -52 -112 -61 -335 -61 l-198 0 0 258 c0 142 3 262 7 266 5 4 102 6
218 4 174 -3 217 -7 250 -21z"/>
<path d="M2620 2535 l0 -735 95 0 95 0 0 289 0 289 258 5 c274 4 294 7 401 61
93 47 161 135 191 245 17 63 14 200 -5 268 -33 115 -109 203 -221 255 -103 48
-184 57 -516 58 l-298 0 0 -735z m667 560 c119 -35 193 -134 196 -262 2 -99
-18 -159 -73 -214 -74 -74 -107 -82 -372 -87 l-228 -4 0 291 0 291 213 0 c160
0 226 -4 264 -15z"/>
</g>
</svg>





